HIERARCHY
ROOT Hips
{
   OFFSET 0.00000 0.00000 0.00000
   CHANNELS 6 Xposition Yposition Zposition Zrotation Xrotation Yrotation
   JOINT Spine
   {
      OFFSET 0.000000 11.890501 0.000000
      CHANNELS 3 Zrotation Xrotation Yrotation
      JOINT Spine1
      {
         OFFSET -0.000000 25.657401 0.127660
         CHANNELS 3 Zrotation Xrotation Yrotation
         JOINT HEad
         {
            OFFSET 0.000000 8.734161 0.011340
            CHANNELS 3 Zrotation Xrotation Yrotation
            End Site
            {
               OFFSET -0.290000 12.774200 2.513950
            }
         }
         JOINT LeftShoulder1
         {
            OFFSET 8.990000 -0.362250 -0.220000
            CHANNELS 3 Zrotation Xrotation Yrotation
            JOINT LeftArm
            {
               OFFSET 10.282700 -0.003380 0.322120
               CHANNELS 3 Zrotation Xrotation Yrotation
               JOINT LeftForeArm
               {
                  OFFSET 32.766900 0.099140 -1.424340
                  CHANNELS 3 Zrotation Xrotation Yrotation
                  JOINT LeftHand
                  {
                     OFFSET 27.564301 0.085360 1.022160
                     CHANNELS 3 Zrotation Xrotation Yrotation
                     End Site
                     {
                        OFFSET 16.744301 -0.600000 1.502910
                     }
                  }
               }
            }
         }
         JOINT RightShoulder
         {
            OFFSET -8.990000 -0.362250 -0.220000
            CHANNELS 3 Zrotation Xrotation Yrotation
            JOINT RightArm
            {
               OFFSET -10.282700 -0.003380 0.322120
               CHANNELS 3 Zrotation Xrotation Yrotation
               JOINT RightForeArm
               {
                  OFFSET -32.897098 0.099140 -1.424340
                  CHANNELS 3 Zrotation Xrotation Yrotation
                  JOINT RightHand
                  {
                     OFFSET -27.492101 0.085360 1.022160
                     CHANNELS 3 Zrotation Xrotation Yrotation
                     End Site
                     {
                        OFFSET -16.631201 -0.600000 1.502910
                     }
                  }
               }
            }
         }
      }
   }
   JOINT LeftUpLeg
   {
      OFFSET 8.945800 -8.667070 0.101650
      CHANNELS 3 Zrotation Xrotation Yrotation
      JOINT LeftLeg
      {
         OFFSET 0.000000 -44.422697 1.372700
         CHANNELS 3 Zrotation Xrotation Yrotation
         JOINT LeftFoot
         {
            OFFSET -0.253550 -42.092399 -1.460590
            CHANNELS 3 Zrotation Xrotation Yrotation
            JOINT LeftToes
            {
               OFFSET -0.040000 -4.415090 8.499099
               CHANNELS 3 Zrotation Xrotation Yrotation
               End Site
               {
                  OFFSET 0.080000 -0.047450 9.779790
               }
            }
         }
      }
   }
   JOINT RightUpLeg
   {
      OFFSET -8.945800 -8.667070 0.101650
      CHANNELS 3 Zrotation Xrotation Yrotation
      JOINT RightLeg
      {
         OFFSET 0.000000 -44.422697 1.372700
         CHANNELS 3 Zrotation Xrotation Yrotation
         JOINT RightFoot
         {
            OFFSET 0.253550 -42.092399 -1.460590
            CHANNELS 3 Zrotation Xrotation Yrotation
            JOINT RightToes
            {
               OFFSET 0.040000 -4.415090 8.499099
               CHANNELS 3 Zrotation Xrotation Yrotation
               End Site
               {
                  OFFSET -0.080000 -0.137450 9.779790
               }
            }
         }
      }
   }
}
MOTION
Frames: 9
Frame Time: 0.016670
38.841059 91.994647 10.559614 27.189115 27.939879 127.313647 -11.294782 53.088212 36.013163 20.202668 26.594429 -47.604451 -7.482517 10.833342 16.686205 -18.120263 -21.361357 -7.796928 -129.757489 -14.128457 -141.158181 -76.176342 56.231715 20.740754 -14.125811 -1.296586 -49.234152 -47.153717 32.789170 60.184396 131.139291 134.065576 172.217551 4.459907 210.937975 80.137483 -19.309467 -19.274995 30.880986 5.519677 20.287938 19.171065 -5.887905 21.481946 135.242950 -17.199834 49.321605 -20.838458 24.163842 -16.293379 -44.000133 -10.175945 16.627682 2.398771 16.435442 14.126595 10.432893 -54.794855 9.356330 16.034245 14.171219 -16.250922 -35.881634
38.852002 92.465962 11.126486 25.098509 34.733185 127.570257 -18.623974 54.821970 38.463879 19.453386 26.383429 -46.943518 -15.486301 5.613918 15.186448 -17.155584 -22.048419 -11.544141 -123.002432 -23.901648 -134.349602 -50.956319 52.731970 -8.434890 -15.050482 -1.502073 -48.073200 -50.994015 34.343123 65.701290 128.416422 135.490176 170.367594 2.995905 210.499395 81.902096 -32.688473 -16.013705 21.474205 1.811066 19.547272 22.987471 -8.573043 28.548700 137.319505 -19.689313 49.994765 -19.549830 27.786094 -18.993341 -49.685398 -16.268462 18.323738 5.325789 12.114492 16.475603 9.058861 -42.746425 9.163763 14.259791 3.685080 -15.374915 -34.966194
39.007558 92.914809 11.686761 23.815343 42.937291 123.843214 -25.405881 54.322369 39.522234 19.102868 26.321490 -46.909237 -24.562929 1.756651 14.197122 -16.826651 -23.472445 -11.995306 -112.418446 -40.443264 -126.810631 -29.493331 44.224635 -27.097157 -15.268266 -4.053510 -47.515966 -54.936636 35.937156 69.362265 126.995237 134.776243 167.583035 5.050569 210.503384 88.299456 -12.671302 -23.632844 42.933685 -4.278644 20.217659 27.491638 -11.420215 34.915224 134.079141 -20.840270 51.607799 -19.105214 28.493446 -19.069118 -49.812788 -24.182396 19.765685 9.467516 8.782376 18.840392 7.495342 -32.678596 9.311138 12.499722 -7.339403 -14.315645 -33.448174
39.318101 93.346108 12.057072 24.007283 49.103545 119.338868 -31.720478 52.628059 41.609318 16.699647 29.708587 -45.225835 -33.009085 -2.168534 13.502190 -16.576620 -24.416398 -16.231248 -98.733321 -54.018375 -113.474823 -18.467812 31.802614 -34.584028 -14.747548 1.394483 -34.713928 -62.733956 37.254768 74.549329 127.086939 134.259157 164.236188 2.569444 211.790970 88.468278 -25.082569 -27.619576 37.722161 -9.125968 19.222746 31.183632 -11.947539 40.135988 126.371573 -24.710666 53.547385 -20.633375 20.234714 -23.409758 -58.491377 -30.455639 19.755397 13.092428 7.178478 20.379087 5.905572 -23.357599 10.445616 11.192147 -18.652950 -13.596303 -31.973502
39.687850 93.725537 12.322146 24.984120 52.911413 114.457476 -37.984164 51.190922 42.677334 15.013765 33.213154 -42.051135 -40.611021 -6.642355 13.123496 -16.875755 -24.012099 -21.104945 -81.623137 -66.601557 -96.444949 -15.014789 19.347310 -35.672992 -18.950438 -10.357680 -52.128769 -69.977781 38.290860 80.487653 128.263275 132.222203 159.945723 1.142540 211.764442 89.608079 -17.574627 -24.084236 39.091836 -10.626571 16.778380 37.712804 -9.269967 44.786206 118.403802 -29.887532 53.971885 -20.222909 31.249239 -20.795399 -48.209388 -36.027585 20.838053 16.090507 8.661630 17.431911 3.609870 -16.506528 11.217626 10.087077 -29.825069 -14.519036 -30.235864
40.145411 94.071225 12.552368 26.484079 55.135186 110.444890 -44.443037 48.326676 42.829446 13.598493 33.161794 -37.658788 -46.110187 -11.062929 12.840418 -18.480955 -25.385725 -25.084377 -63.163534 -75.233509 -77.000261 -16.393574 3.520587 -32.949560 -20.033414 -2.028895 -28.670443 -76.366371 36.903362 86.184939 130.033387 128.623814 155.825766 4.820304 210.806357 88.928578 -27.012020 -23.832236 35.060444 -10.284879 13.407051 43.100772 -2.615718 44.945988 107.274159 -28.443469 53.907654 -23.532887 20.793232 -29.981570 -54.812575 -39.896477 21.322012 18.796896 9.948155 15.136468 1.698076 -9.007463 11.867185 8.903742 -40.628083 -15.225614 -28.875936
40.690131 94.338826 13.003564 28.457961 59.299450 108.731257 -49.139912 45.799547 40.961806 12.437483 33.111371 -33.880556 -49.695439 -15.234561 12.685551 -21.309159 -25.788950 -27.597542 -44.321460 -76.300788 -57.082572 -20.675953 -11.934927 -33.084241 -21.293957 -12.126180 -38.283016 -82.089585 36.288997 91.284823 132.491545 124.034528 151.788564 8.192834 209.085041 89.938469 -22.141199 -19.879428 36.089637 -8.698912 10.965098 50.934674 2.704730 44.486938 98.043964 -28.074973 52.970719 -26.443697 15.694636 -32.277613 -53.499243 -44.868722 23.198306 21.342362 10.519319 14.770305 -0.076142 -1.313787 12.601690 7.516208 -51.069994 -15.585243 -27.883645
41.412076 94.427384 13.643915 28.715109 62.563085 106.595067 -49.976539 45.007600 38.431924 10.522693 33.361458 -30.701888 -51.461879 -16.300537 12.548946 -24.447125 -27.551902 -28.137924 -28.113200 -72.792420 -39.455711 -24.522696 -29.118736 -33.663807 -28.766858 -8.645521 -15.945544 -86.149558 36.101371 93.832545 136.372076 119.925814 148.430884 9.364294 205.590729 87.800668 -27.469808 -20.515822 34.444244 -6.122494 5.799214 58.705312 9.120920 42.877745 90.146093 -27.236368 52.770318 -27.646391 15.834989 -32.433307 -54.177655 -49.985162 22.654539 23.596529 11.692314 14.657823 -1.347821 7.349874 11.944508 6.858912 -60.941639 -15.845445 -27.709509
42.187180 94.280747 14.312379 28.470506 63.579581 107.554449 -52.471207 45.761011 35.220048 10.281999 32.334057 -27.300700 -52.764502 -15.411106 12.693942 -25.291465 -30.228396 -29.624453 -14.879613 -65.675582 -27.166744 -27.724324 -44.798142 -35.842712 -30.935880 -17.081173 -24.270876 -89.680124 36.224783 95.998521 139.655512 116.329323 144.425511 9.225151 201.447086 85.640067 -25.068941 -19.292206 32.441175 -0.712204 0.391150 68.710330 16.878067 39.506740 82.604991 -28.686354 51.225087 -29.005505 24.265178 -35.076529 -52.960788 -52.029820 23.262309 26.839676 14.429297 15.381627 -0.542732 -14.114398 10.224581 8.410237 -39.411984 -16.349728 -28.005012
